# xmcd CD database file
# Copyright (C) 2002 Ti Kan
# 
# Track frame offsets:
#     150
#     11412
#     28144
#     38353
#     50682
#     63549
#     84170
#     95227
#     113026
#     131349
#     143584
#     161804
# 
# Disc length: 2382 seconds
# 
# Revision: 1
# Processed by: cddbd v1.4PL0 Copyright (c) Steve Scherf et al.
# Submitted via: DiscPlay 4.0.4
# 
DISCID=96094c0c
DTITLE=Liam Grundy, Pete Pritchard, with Scotty Moore - Western Union
DYEAR=1900
DGENRE=
TTITLE0=24.7.365
TTITLE1=EP Express
TTITLE2=Thrilled to Pieces
TTITLE3=Mad About You
TTITLE4=Richmond
TTITLE5=Who Will the Next Fool Be
TTITLE6=200lbs of Hard Time
TTITLE7=New Orleans
TTITLE8=Don't Put the Blame on Me
TTITLE9=Treat Me Tenderly
TTITLE10=One More Night
TTITLE11=It Must Be Right
EXTD=
EXTT0=
EXTT1=
EXTT2=
EXTT3=\n\n\n
EXTT4=
EXTT5=
EXTT6=
EXTT7=
EXTT8=
EXTT9=
EXTT10=
EXTT11=
PLAYORDER=
